<svg width="188" height="143" viewBox="0 0 188 143" fill="none" xmlns="http://www.w3.org/2000/svg">
<g clip-path="url(#clip0_7_105)">
<path d="M134.252 15.36L157.782 47.1699L170.332 87.4353C172.069 90.9051 169.477 94.9733 165.598 94.8657L80.3417 92.5013C76.2458 92.3876 73.9266 87.7577 76.2886 84.4095L125.465 14.6988C127.703 11.5272 132.515 11.8894 134.252 15.36Z" fill="#FECB21"/>
<path d="M112.274 74.1198C107.268 76.6259 101.178 74.5989 98.6715 69.5927C96.1654 64.5865 98.1922 58.4963 103.199 55.9902C108.205 53.4841 114.295 55.5109 116.801 60.5173C119.307 65.5237 117.28 71.6136 112.274 74.1198ZM103.719 92.7878C103.851 87.1906 99.4207 82.5463 93.8238 82.4141C88.2266 82.282 83.5823 86.7122 83.4501 92.3091L103.719 92.7878ZM147.448 70.8975C144.942 65.8911 138.852 63.8643 133.845 66.3705C128.839 68.8766 126.812 74.9666 129.318 79.973C131.825 84.9793 137.914 87.0062 142.921 84.5C147.927 81.9939 149.954 75.9039 147.448 70.8975ZM137.424 36.1412C134.918 31.1348 128.828 29.108 123.821 31.6142C118.815 34.1203 116.788 40.2103 119.294 45.2167C121.8 50.2231 127.89 52.2499 132.897 49.7437C137.903 47.2376 139.93 41.1476 137.424 36.1412Z" fill="#F43B22"/>
<path d="M123.229 18.6074C122.063 16.2798 122.163 13.4064 123.736 11.1054C126.045 7.72903 130.654 6.86379 134.03 9.17269C140.411 13.5366 146.278 18.7848 151.468 24.7714C156.662 30.7627 161.131 37.4375 164.753 44.6104C168.361 51.7557 171.086 59.3167 172.845 67.0687C174.639 74.9741 175.411 82.9957 175.138 90.9107C174.997 94.9985 171.569 98.1978 167.481 98.0568C163.394 97.9158 160.194 94.4877 160.335 90.4002C160.564 83.7576 159.914 77.0106 158.401 70.3466C156.93 63.8651 154.663 57.5404 151.661 51.5444L151.532 51.286C148.459 45.2007 144.672 39.5439 140.276 34.4731C135.918 29.4452 131.003 25.0464 125.669 21.3986C124.631 20.6914 123.791 19.7306 123.229 18.6074Z" fill="#C4790C"/>
</g>
<g filter="url(#filter0_d_7_105)">
<path d="M23 109.75C23.7 109.75 24.05 110.283 24.05 111.35C24.05 113.817 23.1833 116.067 21.45 118.1C19.75 120.133 17.15 121.15 13.65 121.15C10.15 121.15 7.33333 120.217 5.2 118.35C3.1 116.45 2.05 113.683 2.05 110.05C2.05 106.383 2.98333 103.533 4.85 101.5C6.71667 99.4333 9.1 98.4 12 98.4C14.1 98.4 15.6333 98.9667 16.6 100.1C17.5667 101.2 18.05 102.517 18.05 104.05C18.05 106.55 17 108.633 14.9 110.3C12.8333 111.933 10.1833 112.75 6.95 112.75C7.25 114.883 8.01667 116.5 9.25 117.6C10.5167 118.667 12.1667 119.2 14.2 119.2C16.2667 119.2 18.1167 118.433 19.75 116.9C21.4167 115.333 22.25 113.05 22.25 110.05C22.2833 109.85 22.5333 109.75 23 109.75ZM6.8 110.45V110.9C8.86667 110.633 10.65 109.983 12.15 108.95C13.6833 107.917 14.45 106.383 14.45 104.35C14.45 103.05 14.1667 102.067 13.6 101.4C13.0333 100.7 12.2333 100.35 11.2 100.35C9.63333 100.35 8.5 101.117 7.8 102.65C7.13333 104.183 6.8 106.783 6.8 110.45ZM37.5113 99.85C37.9447 98.8833 38.628 98.4 39.5613 98.4C40.528 98.4 41.2447 98.6333 41.7113 99.1V113.45C41.7113 115.35 42.0113 116.783 42.6113 117.75C43.2113 118.717 44.028 119.2 45.0613 119.2C48.1947 119.2 49.7613 115.95 49.7613 109.45C49.7947 109.25 50.0447 109.15 50.5113 109.15C51.1113 109.15 51.4113 110.033 51.4113 111.8C51.4113 114.633 50.7947 116.9 49.5613 118.6C48.3613 120.3 46.6613 121.15 44.4613 121.15C41.0947 121.15 38.8613 119.667 37.7613 116.7C37.128 118.067 36.2613 119.15 35.1613 119.95C34.0613 120.75 32.8113 121.15 31.4113 121.15C25.578 121.15 22.6613 117.333 22.6613 109.7C22.6613 105.833 23.5613 102.983 25.3613 101.15C27.1947 99.3167 29.6113 98.4 32.6113 98.4C34.9113 98.4 36.5447 98.8833 37.5113 99.85ZM28.1113 115.85C28.578 117.317 29.1113 118.25 29.7113 118.65C30.3113 119.017 31.1113 119.2 32.1113 119.2C33.1113 119.2 34.1947 118.583 35.3613 117.35C36.5613 116.083 37.1613 114.45 37.1613 112.45V105.6C37.1613 104.033 36.7447 102.767 35.9113 101.8C35.1113 100.833 34.1947 100.35 33.1613 100.35C32.1613 100.35 31.3613 100.45 30.7613 100.65C30.1613 100.85 29.5947 101.267 29.0613 101.9C27.9613 103.1 27.4113 105.7 27.4113 109.7C27.4113 112.333 27.6447 114.383 28.1113 115.85ZM50.1586 94.05C50.1586 93.05 50.4086 92.3 50.9086 91.8C51.4086 91.2667 52.0419 91 52.8086 91C53.5753 91 54.1919 91.2333 54.6586 91.7V99.1H61.5086C62.2086 99.1 62.6586 99.2333 62.8586 99.5C63.0919 99.7667 63.2086 100.217 63.2086 100.85H54.6586V113.45C54.6586 115.283 55.1753 116.7 56.2086 117.7C57.2753 118.7 58.4919 119.2 59.8586 119.2C61.9253 119.2 63.4419 118.433 64.4086 116.9C65.3753 115.367 65.8586 112.883 65.8586 109.45C65.9253 109.25 66.1753 109.15 66.6086 109.15C67.2086 109.15 67.5086 110.033 67.5086 111.8C67.5086 114.5 66.8253 116.733 65.4586 118.5C64.1253 120.267 62.0586 121.15 59.2586 121.15C56.4586 121.15 54.2419 120.417 52.6086 118.95C50.9753 117.483 50.1586 115.3 50.1586 112.4V94.05ZM78.9789 118.1V106.1C78.9789 102.133 77.9789 100.15 75.9789 100.15C74.3122 100.15 73.0289 101.067 72.1289 102.9C71.2622 104.733 70.8289 107.967 70.8289 112.6V120.45C70.4956 120.917 69.9122 121.15 69.0789 121.15C68.2456 121.15 67.5789 120.9 67.0789 120.4C66.5789 119.867 66.3289 119.1 66.3289 118.1V99.1C66.6622 98.6333 67.2456 98.4 68.0789 98.4C68.9122 98.4 69.5789 98.6667 70.0789 99.2C70.5789 99.7 70.8289 100.45 70.8289 101.45C71.9622 99.4167 73.8789 98.4 76.5789 98.4C79.7456 98.4 81.8789 99.75 82.9789 102.45C84.1122 99.75 86.2289 98.4 89.3289 98.4C91.4956 98.4 93.2122 99.0833 94.4789 100.45C95.7789 101.817 96.4289 103.783 96.4289 106.35V113.45C96.4289 115.35 96.7289 116.783 97.3289 117.75C97.9289 118.717 98.8122 119.2 99.9789 119.2C101.179 119.2 102.229 118.467 103.129 117C104.029 115.5 104.479 112.983 104.479 109.45C104.512 109.25 104.762 109.15 105.229 109.15C105.829 109.15 106.129 110.033 106.129 111.8C106.129 114.633 105.512 116.9 104.279 118.6C103.079 120.3 101.312 121.15 98.9789 121.15C96.6456 121.15 94.8456 120.35 93.5789 118.75C92.3456 117.15 91.7289 114.883 91.7289 111.95V106.1C91.7289 102.133 90.7289 100.15 88.7289 100.15C85.3289 100.15 83.6289 104.333 83.6289 112.7V120.45C83.2956 120.917 82.6956 121.15 81.8289 121.15C80.9956 121.15 80.3122 120.9 79.7789 120.4C79.2456 119.867 78.9789 119.1 78.9789 118.1ZM114.911 98.4C117.878 98.4 120.295 99.3833 122.161 101.35C124.028 103.317 124.961 106 124.961 109.4C124.961 112.767 124.078 115.567 122.311 117.8C120.578 120.033 118.245 121.15 115.311 121.15C112.378 121.15 109.928 120.15 107.961 118.15C106.028 116.117 105.061 113.317 105.061 109.75C105.061 106.15 105.961 103.367 107.761 101.4C109.595 99.4 111.978 98.4 114.911 98.4ZM114.961 100.35C114.061 100.35 113.278 100.583 112.611 101.05C111.978 101.483 111.661 102.117 111.661 102.95C111.661 105.083 112.495 107.133 114.161 109.1C115.828 111.033 117.811 112.317 120.111 112.95C120.178 111.683 120.211 110.6 120.211 109.7C120.211 106.233 119.845 103.817 119.111 102.45C118.378 101.05 116.995 100.35 114.961 100.35ZM109.811 109.7C109.811 113.1 110.228 115.533 111.061 117C111.928 118.467 113.328 119.2 115.261 119.2C116.595 119.2 117.611 118.867 118.311 118.2C119.045 117.5 119.545 116.383 119.811 114.85C117.645 114.383 115.645 113.4 113.811 111.9C112.011 110.4 110.695 108.733 109.861 106.9C109.828 107.467 109.811 108.4 109.811 109.7ZM133.245 112.5V120.45C132.912 120.917 132.329 121.15 131.495 121.15C130.662 121.15 129.995 120.9 129.495 120.4C128.995 119.867 128.745 119.1 128.745 118.1V99.1C129.079 98.6333 129.662 98.4 130.495 98.4C131.329 98.4 131.995 98.6667 132.495 99.2C132.995 99.7 133.245 100.45 133.245 101.45V105.25C134.912 101.117 137.212 99.05 140.145 99.05C142.245 99.05 143.779 99.6167 144.745 100.75C145.712 101.85 146.195 103.167 146.195 104.7C146.195 105.533 145.945 106.2 145.445 106.7C144.945 107.2 144.462 107.45 143.995 107.45C143.129 107.45 142.562 107.25 142.295 106.85C142.495 106.35 142.595 105.633 142.595 104.7C142.595 103.767 142.279 102.917 141.645 102.15C141.012 101.383 140.245 101 139.345 101C137.779 101 136.362 102.433 135.095 105.3C133.862 108.133 133.245 110.533 133.245 112.5ZM169.429 109.75C170.129 109.75 170.479 110.283 170.479 111.35C170.479 113.817 169.612 116.067 167.879 118.1C166.179 120.133 163.579 121.15 160.079 121.15C156.579 121.15 153.762 120.217 151.629 118.35C149.529 116.45 148.479 113.683 148.479 110.05C148.479 106.383 149.412 103.533 151.279 101.5C153.146 99.4333 155.529 98.4 158.429 98.4C160.529 98.4 162.062 98.9667 163.029 100.1C163.996 101.2 164.479 102.517 164.479 104.05C164.479 106.55 163.429 108.633 161.329 110.3C159.262 111.933 156.612 112.75 153.379 112.75C153.679 114.883 154.446 116.5 155.679 117.6C156.946 118.667 158.596 119.2 160.629 119.2C162.696 119.2 164.546 118.433 166.179 116.9C167.846 115.333 168.679 113.05 168.679 110.05C168.712 109.85 168.962 109.75 169.429 109.75ZM153.229 110.45V110.9C155.296 110.633 157.079 109.983 158.579 108.95C160.112 107.917 160.879 106.383 160.879 104.35C160.879 103.05 160.596 102.067 160.029 101.4C159.462 100.7 158.662 100.35 157.629 100.35C156.062 100.35 154.929 101.117 154.229 102.65C153.562 104.183 153.229 106.783 153.229 110.45Z" fill="white"/>
</g>
<path d="M14.86 132.14C14.86 133.3 14.46 134.267 13.66 135.04C12.8733 135.8 11.6667 136.18 10.04 136.18H7.36V142H5.54V128.06H10.04C11.6133 128.06 12.8067 128.44 13.62 129.2C14.4467 129.96 14.86 130.94 14.86 132.14ZM10.04 134.68C11.0533 134.68 11.8 134.46 12.28 134.02C12.76 133.58 13 132.953 13 132.14C13 130.42 12.0133 129.56 10.04 129.56H7.36V134.68H10.04ZM47.362 129.26C47.0154 129.26 46.722 129.14 46.482 128.9C46.242 128.66 46.122 128.367 46.122 128.02C46.122 127.673 46.242 127.38 46.482 127.14C46.722 126.9 47.0154 126.78 47.362 126.78C47.6954 126.78 47.9754 126.9 48.202 127.14C48.442 127.38 48.562 127.673 48.562 128.02C48.562 128.367 48.442 128.66 48.202 128.9C47.9754 129.14 47.6954 129.26 47.362 129.26ZM48.242 131.04V142H46.422V131.04H48.242ZM82.0039 140.5H87.3839V142H79.9239V140.5L85.2439 132.52H79.9639V131.04H87.3439V132.52L82.0039 140.5ZM120.405 140.5H125.785V142H118.325V140.5L123.645 132.52H118.365V131.04H125.745V132.52L120.405 140.5ZM156.767 136.48C156.767 135.36 156.994 134.38 157.447 133.54C157.9 132.687 158.52 132.027 159.307 131.56C160.107 131.093 160.994 130.86 161.967 130.86C162.927 130.86 163.76 131.067 164.467 131.48C165.174 131.893 165.7 132.413 166.047 133.04V131.04H167.887V142H166.047V139.96C165.687 140.6 165.147 141.133 164.427 141.56C163.72 141.973 162.894 142.18 161.947 142.18C160.974 142.18 160.094 141.94 159.307 141.46C158.52 140.98 157.9 140.307 157.447 139.44C156.994 138.573 156.767 137.587 156.767 136.48ZM166.047 136.5C166.047 135.673 165.88 134.953 165.547 134.34C165.214 133.727 164.76 133.26 164.187 132.94C163.627 132.607 163.007 132.44 162.327 132.44C161.647 132.44 161.027 132.6 160.467 132.92C159.907 133.24 159.46 133.707 159.127 134.32C158.794 134.933 158.627 135.653 158.627 136.48C158.627 137.32 158.794 138.053 159.127 138.68C159.46 139.293 159.907 139.767 160.467 140.1C161.027 140.42 161.647 140.58 162.327 140.58C163.007 140.58 163.627 140.42 164.187 140.1C164.76 139.767 165.214 139.293 165.547 138.68C165.88 138.053 166.047 137.327 166.047 136.5Z" fill="white"/>
<defs>
<filter id="filter0_d_7_105" x="0.0500031" y="91" width="172.429" height="34.15" filterUnits="userSpaceOnUse" color-interpolation-filters="sRGB">
<feFlood flood-opacity="0" result="BackgroundImageFix"/>
<feColorMatrix in="SourceAlpha" type="matrix" values="0 0 0 0 0 0 0 0 0 0 0 0 0 0 0 0 0 0 127 0" result="hardAlpha"/>
<feOffset dy="2"/>
<feGaussianBlur stdDeviation="1"/>
<feColorMatrix type="matrix" values="0 0 0 0 0 0 0 0 0 0 0 0 0 0 0 0 0 0 0.25 0"/>
<feBlend mode="normal" in2="BackgroundImageFix" result="effect1_dropShadow_7_105"/>
<feBlend mode="normal" in="SourceGraphic" in2="effect1_dropShadow_7_105" result="shape"/>
</filter>
<clipPath id="clip0_7_105">
<rect width="100" height="100" fill="white" transform="translate(142.422) rotate(63.408)"/>
</clipPath>
</defs>
</svg>
