<svg xmlns="http://www.w3.org/2000/svg" width="102" height="28" viewBox="0 0 102 28">
  <metadata><?xpacket begin="﻿" id="W5M0MpCehiHzreSzNTczkc9d"?>
<x:xmpmeta xmlns:x="adobe:ns:meta/" x:xmptk="Adobe XMP Core 5.6-c138 79.159824, 2016/09/14-01:09:01        ">
   <rdf:RDF xmlns:rdf="http://www.w3.org/1999/02/22-rdf-syntax-ns#">
      <rdf:Description rdf:about=""/>
   </rdf:RDF>
</x:xmpmeta>
                                                                                                    
                                                                                                    
                                                                                                    
                                                                                                    
                                                                                                    
                                                                                                    
                                                                                                    
                                                                                                    
                                                                                                    
                                                                                                    
                                                                                                    
                                                                                                    
                                                                                                    
                                                                                                    
                                                                                                    
                                                                                                    
                                                                                                    
                                                                                                    
                                                                                                    
                                                                                                    
                           
<?xpacket end="w"?></metadata>
<defs>
    <style>
      .cls-1 {
        fill: #ee252d;
        fill-rule: evenodd;
      }
    </style>
  </defs>
  <path class="cls-1" d="M533.22,1028.55c-4.274,0-8.653,3.12-8.653,6.96a4.7,4.7,0,0,0,1.857,3.98c0.665,0.54.665,1.32-.106,2.17a5.108,5.108,0,0,1-3.573,1.78c-1.612,0-3.748-1.53-3.748-4.48,0-1.64,1.051-5.15,5.255-8.35a21.244,21.244,0,0,1,12.541-4.83c9.177-7.43,16.6-8.78,22-8.78a38.117,38.117,0,0,1,13.8,2.98c2.383,0.93,11.631,4.84,18.182,7.75,6.865,2.88,12.785,4.62,16.848,4.62,3.259,0,7.953-1.17,7.953-5.22a3.723,3.723,0,0,0-1.4-3.13,2.132,2.132,0,0,1-.806-1.46,3.888,3.888,0,0,1,3.643-3.77c2.592,0,3.993,2.63,3.993,4.62,0,5.4-5.813,9.07-9.738,10.7-7.216,7.78-14.5,10.91-21.578,10.91-5.185,0-10.158-1.42-16.743-3.84-4.976-1.85-20.6-8.31-26.869-10.34-5.779-1.81-9.073-2.27-12.787-2.27H533.22Zm20.141-8.6a13.81,13.81,0,0,0-11.6,6.07c2.733,0.04,6.867.64,13.7,3.17,6.83,2.34,19.442,7.81,23.855,9.34,4.9,1.64,9.6,2.99,14.257,2.99,5.219,0,9.879-1.74,12.331-6.22-4.87.64-9.457-.14-16.219-2.81-5.185-2.02-19.476-8.67-24.311-10.34a36.709,36.709,0,0,0-11.944-2.2h-0.071Z" transform="translate(-519 -1017)"/>
</svg>
